<?xml version="1.0" encoding="UTF-8"?>
<svg width="100px" height="17px" viewBox="0 0 100 17" version="1.1" xmlns="http://www.w3.org/2000/svg" xmlns:xlink="http://www.w3.org/1999/xlink">
    <title>cf</title>
    <defs>
        <path d="M5.103,15.267 C5.831,15.267 6.524,15.1795 7.182,15.0045 C7.84,14.8295 8.414,14.567 8.904,14.217 L8.904,14.217 L8.274,12.81 C7.98,13.034 7.6125,13.2265 7.1715,13.3875 C6.7305,13.5485 6.216,13.629 5.628,13.629 C4.97,13.629 4.4135,13.51 3.9585,13.272 C3.5035,13.034 3.136,12.7225 2.856,12.3375 C2.576,11.9525 2.373,11.5115 2.247,11.0145 C2.121,10.5175 2.058,10.003 2.058,9.471 C2.058,6.671 3.199,5.271 5.481,5.271 C5.999,5.271 6.4785,5.327 6.9195,5.439 C7.3605,5.551 7.77,5.705 8.148,5.901 L8.148,5.901 L8.652,4.326 C8.218,4.13 7.728,3.9655 7.182,3.8325 C6.636,3.6995 5.992,3.633 5.25,3.633 C3.556,3.633 2.2575,4.1405 1.3545,5.1555 C0.4515,6.1705 0,7.609 0,9.471 C0,10.339 0.091,11.13 0.273,11.844 C0.455,12.558 0.749,13.167 1.155,13.671 C1.561,14.175 2.0895,14.567 2.7405,14.847 C3.3915,15.127 4.179,15.267 5.103,15.267 Z M14.402,15.267 C15.242,15.267 15.9945,15.134 16.6595,14.868 C17.3245,14.602 17.8845,14.217 18.3395,13.713 C18.7945,13.209 19.1445,12.6 19.3895,11.886 C19.6345,11.172 19.757,10.367 19.757,9.471 C19.757,8.631 19.6485,7.8575 19.4315,7.1505 C19.2145,6.4435 18.882,5.8275 18.434,5.3025 C17.986,4.7775 17.426,4.368 16.754,4.074 C16.082,3.78 15.298,3.633 14.402,3.633 C13.548,3.633 12.7885,3.766 12.1235,4.032 C11.4585,4.298 10.895,4.683 10.433,5.187 C9.971,5.691 9.621,6.3035 9.383,7.0245 C9.145,7.7455 9.026,8.561 9.026,9.471 C9.026,10.297 9.1345,11.0635 9.3515,11.7705 C9.5685,12.4775 9.8975,13.09 10.3385,13.608 C10.7795,14.126 11.336,14.532 12.008,14.826 C12.68,15.12 13.478,15.267 14.402,15.267 Z M14.423,13.629 C13.807,13.629 13.289,13.51 12.869,13.272 C12.449,13.034 12.106,12.719 11.84,12.327 C11.574,11.935 11.3815,11.4905 11.2625,10.9935 C11.1435,10.4965 11.084,9.989 11.084,9.471 C11.084,8.057 11.3675,7.0035 11.9345,6.3105 C12.5015,5.6175 13.331,5.271 14.423,5.271 C15.011,5.271 15.515,5.39 15.935,5.628 C16.355,5.866 16.6945,6.1775 16.9535,6.5625 C17.2125,6.9475 17.4015,7.392 17.5205,7.896 C17.6395,8.4 17.699,8.925 17.699,9.471 C17.699,12.243 16.607,13.629 14.423,13.629 Z M25.381,15.267 C26.207,15.267 26.9315,15.085 27.5545,14.721 C28.1775,14.357 28.65,13.895 28.972,13.335 L28.972,13.335 L29.182,13.335 L29.665,15.015 L30.946,15.015 C30.834,14.413 30.7675,13.8005 30.7465,13.1775 C30.7255,12.5545 30.715,11.886 30.715,11.172 L30.715,11.172 L30.715,0.273 L28.783,0.273 L28.783,4.116 C28.573,4.06 28.3735,4.004 28.1845,3.948 C27.9955,3.892 27.7995,3.85 27.5965,3.822 C27.3935,3.794 27.1765,3.7695 26.9455,3.7485 C26.7145,3.7275 26.452,3.717 26.158,3.717 C24.422,3.717 23.0745,4.2175 22.1155,5.2185 C21.1565,6.2195 20.677,7.658 20.677,9.534 C20.677,11.48 21.0655,12.922 21.8425,13.86 C22.6195,14.798 23.799,15.267 25.381,15.267 Z M25.78,13.629 C25.206,13.629 24.723,13.5275 24.331,13.3245 C23.939,13.1215 23.624,12.838 23.386,12.474 C23.148,12.11 22.973,11.6795 22.861,11.1825 C22.749,10.6855 22.693,10.143 22.693,9.555 C22.693,8.071 23.0045,7 23.6275,6.342 C24.2505,5.684 25.129,5.355 26.263,5.355 C26.879,5.355 27.3725,5.4005 27.7435,5.4915 C28.1145,5.5825 28.461,5.747 28.783,5.985 L28.783,5.985 L28.783,11.088 C28.587,11.928 28.251,12.5615 27.775,12.9885 C27.299,13.4155 26.634,13.629 25.78,13.629 Z M37.641,15.267 C38.495,15.267 39.286,15.1585 40.014,14.9415 C40.742,14.7245 41.351,14.434 41.841,14.07 L41.841,14.07 L41.106,12.6 C40.812,12.88 40.399,13.1215 39.867,13.3245 C39.335,13.5275 38.775,13.629 38.187,13.629 C36.773,13.629 35.772,13.3 35.184,12.642 C34.596,11.984 34.288,11.011 34.26,9.723 L34.26,9.723 L42.135,9.723 C42.177,9.443 42.205,9.156 42.219,8.862 C42.233,8.568 42.24,8.309 42.24,8.085 C42.24,7.161 42.1035,6.412 41.8305,5.838 C41.5575,5.264 41.204,4.8125 40.77,4.4835 C40.336,4.1545 39.846,3.9305 39.3,3.8115 C38.754,3.6925 38.208,3.633 37.662,3.633 C35.94,3.633 34.6135,4.1335 33.6825,5.1345 C32.7515,6.1355 32.286,7.581 32.286,9.471 C32.286,10.353 32.391,11.151 32.601,11.865 C32.811,12.579 33.133,13.188 33.567,13.692 C34.001,14.196 34.5575,14.5845 35.2365,14.8575 C35.9155,15.1305 36.717,15.267 37.641,15.267 Z M40.392,8.337 L34.344,8.337 C34.442,7.217 34.778,6.426 35.352,5.964 C35.926,5.502 36.703,5.271 37.683,5.271 C38.551,5.271 39.2265,5.502 39.7095,5.964 C40.1925,6.426 40.42,7.217 40.392,8.337 L40.392,8.337 Z M53.66,15.267 C54.01,15.267 54.4055,15.232 54.8465,15.162 C55.2875,15.092 55.655,14.994 55.949,14.868 L55.949,14.868 L55.718,13.44 C55.438,13.524 55.179,13.5765 54.941,13.5975 C54.703,13.6185 54.486,13.629 54.29,13.629 C53.926,13.629 53.639,13.503 53.429,13.251 C53.219,12.999 53.114,12.579 53.114,11.991 L53.114,11.991 L53.114,0.378 C52.82,0.336 52.477,0.2905 52.085,0.2415 C51.693,0.1925 51.2905,0.1505 50.8775,0.1155 C50.4645,0.0805 50.062,0.0525 49.67,0.0315 C49.278,0.0105 48.949,0 48.683,0 C47.143,0 46.0405,0.2555 45.3755,0.7665 C44.7105,1.2775 44.378,2.107 44.378,3.255 L44.378,3.255 L44.378,3.948 L42.488,3.948 L42.488,5.586 L44.378,5.586 L44.378,14.973 L46.31,14.973 L46.31,5.586 L48.725,5.586 L48.725,3.948 L46.31,3.948 C46.31,3.57 46.3345,3.2375 46.3835,2.9505 C46.4325,2.6635 46.5375,2.422 46.6985,2.226 C46.8595,2.03 47.0975,1.883 47.4125,1.785 C47.7275,1.687 48.151,1.638 48.683,1.638 C49.047,1.638 49.46,1.6555 49.922,1.6905 C50.384,1.7255 50.804,1.778 51.182,1.848 L51.182,1.848 L51.182,12.768 C51.182,13.664 51.406,14.3045 51.854,14.6895 C52.302,15.0745 52.904,15.267 53.66,15.267 Z M60.25,15.267 C61.216,15.267 62.021,15.071 62.665,14.679 C63.309,14.287 63.813,13.776 64.177,13.146 L64.177,13.146 L64.387,13.146 L64.891,14.973 L66.193,14.973 C66.109,14.525 66.046,14.0245 66.004,13.4715 C65.962,12.9185 65.941,12.376 65.941,11.844 L65.941,11.844 L65.941,3.948 L64.009,3.948 L64.009,11.151 C63.729,11.851 63.323,12.439 62.791,12.915 C62.259,13.391 61.573,13.629 60.733,13.629 C60.243,13.629 59.8405,13.5485 59.5255,13.3875 C59.2105,13.2265 58.962,12.9955 58.78,12.6945 C58.598,12.3935 58.472,12.019 58.402,11.571 C58.332,11.123 58.297,10.605 58.297,10.017 L58.297,10.017 L58.297,3.948 L56.365,3.948 L56.365,10.458 C56.365,11.382 56.4455,12.152 56.6065,12.768 C56.7675,13.384 57.0125,13.8775 57.3415,14.2485 C57.6705,14.6195 58.0765,14.882 58.5595,15.036 C59.0425,15.19 59.606,15.267 60.25,15.267 Z M73.056,15.267 C73.91,15.267 74.701,15.1585 75.429,14.9415 C76.157,14.7245 76.766,14.434 77.256,14.07 L77.256,14.07 L76.521,12.6 C76.227,12.88 75.814,13.1215 75.282,13.3245 C74.75,13.5275 74.19,13.629 73.602,13.629 C72.188,13.629 71.187,13.3 70.599,12.642 C70.011,11.984 69.703,11.011 69.675,9.723 L69.675,9.723 L77.55,9.723 C77.592,9.443 77.62,9.156 77.634,8.862 C77.648,8.568 77.655,8.309 77.655,8.085 C77.655,7.161 77.5185,6.412 77.2455,5.838 C76.9725,5.264 76.619,4.8125 76.185,4.4835 C75.751,4.1545 75.261,3.9305 74.715,3.8115 C74.169,3.6925 73.623,3.633 73.077,3.633 C71.355,3.633 70.0285,4.1335 69.0975,5.1345 C68.1665,6.1355 67.701,7.581 67.701,9.471 C67.701,10.353 67.806,11.151 68.016,11.865 C68.226,12.579 68.548,13.188 68.982,13.692 C69.416,14.196 69.9725,14.5845 70.6515,14.8575 C71.3305,15.1305 72.132,15.267 73.056,15.267 Z M75.807,8.337 L69.759,8.337 C69.857,7.217 70.193,6.426 70.767,5.964 C71.341,5.502 72.118,5.271 73.098,5.271 C73.966,5.271 74.6415,5.502 75.1245,5.964 C75.6075,6.426 75.835,7.217 75.807,8.337 L75.807,8.337 Z M81.179,14.973 L81.179,7.707 C81.403,7.021 81.7985,6.4575 82.3655,6.0165 C82.9325,5.5755 83.643,5.355 84.497,5.355 C85.463,5.355 86.135,5.649 86.513,6.237 C86.891,6.825 87.08,7.707 87.08,8.883 L87.08,8.883 L87.08,14.973 L89.012,14.973 L89.012,8.484 C89.012,7.532 88.928,6.7445 88.76,6.1215 C88.592,5.4985 88.3435,5.0015 88.0145,4.6305 C87.6855,4.2595 87.276,4.0005 86.786,3.8535 C86.296,3.7065 85.729,3.633 85.085,3.633 C84.175,3.633 83.3945,3.8045 82.7435,4.1475 C82.0925,4.4905 81.564,4.914 81.158,5.418 L81.158,5.418 L80.969,5.418 L80.591,3.948 L79.247,3.948 L79.247,14.973 L81.179,14.973 Z M94.342,15.267 C94.93,15.267 95.4795,15.2005 95.9905,15.0675 C96.5015,14.9345 96.981,14.77 97.429,14.574 L97.429,14.574 L96.988,13.209 C96.624,13.335 96.2985,13.4365 96.0115,13.5135 C95.7245,13.5905 95.406,13.629 95.056,13.629 C94.51,13.629 94.125,13.447 93.901,13.083 C93.677,12.719 93.565,12.096 93.565,11.214 L93.565,11.214 L93.565,5.586 L96.883,5.586 L96.883,3.948 L93.565,3.948 L93.565,1.218 L91.633,1.722 L91.633,3.948 L89.764,3.948 L89.764,5.586 L91.633,5.586 L91.633,11.865 C91.633,13.069 91.8395,13.937 92.2525,14.469 C92.6655,15.001 93.362,15.267 94.342,15.267 Z" id="path-1"></path>
    </defs>
    <g id="Page-1" stroke="none" stroke-width="1" fill="none" fill-rule="evenodd">
        <g id="Artboard" transform="translate(-159.000000, -95.000000)">
            <g id="cf" transform="translate(160.260000, 96.027000)">
                <mask id="mask-2" fill="white">
                    <use xlink:href="#path-1"></use>
                </mask>
                <use id="codefluent" stroke="#FFFFFF" stroke-width="0.8" fill="#FFFFFF" fill-rule="nonzero" xlink:href="#path-1"></use>
            </g>
        </g>
    </g>
</svg>