<?xml version="1.0" encoding="UTF-8"?>
<svg width="170px" height="34px" viewBox="0 0 170 34" version="1.1" xmlns="http://www.w3.org/2000/svg" xmlns:xlink="http://www.w3.org/1999/xlink">
    <title>cf</title>
    <defs>
        <path d="M8.76936217,32.267 C10.0204097,32.267 11.2113108,32.0820676 12.3420653,31.7122029 C13.4728198,31.3423381 14.4592227,30.787541 15.3012739,30.0478116 L15.3012739,30.0478116 L14.2186366,27.074099 C13.7134059,27.5475259 13.0818674,27.9543771 12.3240213,28.2946527 C11.5661752,28.6349282 10.6820214,28.805066 9.67155993,28.805066 C8.54080541,28.805066 7.58447579,28.553558 6.80257107,28.050542 C6.02066635,27.5475259 5.38912792,26.8891667 4.90795578,26.0754642 C4.42678365,25.2617618 4.07793385,24.3297027 3.86140639,23.2792868 C3.64487893,22.2288709 3.5366152,21.1414686 3.5366152,20.0170798 C3.5366152,14.0992439 5.49739165,11.140326 9.41894455,11.140326 C10.309113,11.140326 11.1331203,11.2586827 11.8909664,11.4953961 C12.6488125,11.7321096 13.3525268,12.0575906 14.0021091,12.4718391 L14.0021091,12.4718391 L14.868219,9.1430564 C14.1224022,8.72880789 13.2803509,8.38113503 12.3420653,8.10003783 C11.4037796,7.81894062 10.2970837,7.67839202 9.02197754,7.67839202 C6.11088612,7.67839202 3.87945034,8.75099977 2.32767021,10.8962153 C0.775890069,13.0414308 0,16.0817189 0,20.0170798 C0,21.8516089 0.156380944,23.5233975 0.469142832,25.0324457 C0.78190472,26.5414938 1.28713546,27.8286231 1.98483506,28.8938336 C2.68253466,29.959044 3.59074706,30.787541 4.70947228,31.3793246 C5.82819749,31.9711082 7.18149412,32.267 8.76936217,32.267 Z M24.7494325,32.267 C26.1929489,32.267 27.486099,31.9859028 28.6288828,31.4237084 C29.7716667,30.861514 30.7340109,30.0478116 31.5159156,28.9826011 C32.2978204,27.9173906 32.8992855,26.6302613 33.3203112,25.1212132 C33.7413368,23.6121651 33.9518496,21.9107873 33.9518496,20.0170798 C33.9518496,18.241729 33.7653954,16.6069269 33.392487,15.1126733 C33.0195786,13.6184198 32.4481867,12.3164959 31.6783112,11.2069017 C30.9084358,10.0973074 29.9460916,9.23182393 28.7912784,8.61045117 C27.6364653,7.9890784 26.2891833,7.67839202 24.7494325,7.67839202 C23.2818575,7.67839202 21.9766781,7.95948923 20.8338942,8.52168363 C19.6911104,9.08387804 18.7227515,9.89758047 17.9288175,10.9627909 C17.1348834,12.0280014 16.5334183,13.322528 16.124422,14.8463707 C15.7154256,16.3702134 15.5109275,18.0937831 15.5109275,20.0170798 C15.5109275,21.7628414 15.6973817,23.3828489 16.0702901,24.8771025 C16.4431985,26.371356 17.0085758,27.6658826 17.7664219,28.7606823 C18.524268,29.8554819 19.4805976,30.7135681 20.6354107,31.3349409 C21.7902239,31.9563136 23.1615644,32.267 24.7494325,32.267 Z M24.7855204,28.805066 C23.7269417,28.805066 22.8367733,28.553558 22.115015,28.050542 C21.3932568,27.5475259 20.803821,26.8817694 20.3467074,26.0532724 C19.8895939,25.2247753 19.5587881,24.2853189 19.3542899,23.234903 C19.1497918,22.1844872 19.0475427,21.1118794 19.0475427,20.0170798 C19.0475427,17.0285727 19.5347295,14.8019869 20.509103,13.3373226 C21.4834766,11.8726582 22.9089491,11.140326 24.7855204,11.140326 C25.7959819,11.140326 26.6620917,11.391834 27.3838499,11.8948501 C28.1056081,12.3978661 28.6890293,13.0562254 29.1341136,13.8699278 C29.5791978,14.6836302 29.903989,15.6230867 30.1084871,16.6882971 C30.3129853,17.7535076 30.4152344,18.8631018 30.4152344,20.0170798 C30.4152344,25.8757373 28.5386631,28.805066 24.7855204,28.805066 Z M43.6165356,32.267 C45.0359934,32.267 46.2810263,31.8823407 47.3516343,31.113022 C48.4222423,30.3437033 49.2342203,29.3672604 49.7875683,28.1836933 L49.7875683,28.1836933 L50.1484474,28.1836933 L50.9784693,31.7343948 L53.1798318,31.7343948 C52.987363,30.4620601 52.8730846,29.1675335 52.8369967,27.850815 C52.8009088,26.5340965 52.7828648,25.1212132 52.7828648,23.6121651 L52.7828648,23.6121651 L52.7828648,0.576988996 L49.4627771,0.576988996 L49.4627771,8.69921871 C49.101898,8.58086199 48.7590628,8.46250527 48.4342716,8.34414856 C48.1094804,8.22579184 47.7726599,8.1370243 47.4238101,8.07784594 C47.0749603,8.01866758 46.7020519,7.96688652 46.3050849,7.92250275 C45.9081179,7.87811898 45.457019,7.8559271 44.9517883,7.8559271 C41.9685211,7.8559271 39.6528802,8.91374026 38.0048656,11.0293666 C36.356851,13.1449929 35.5328437,16.1852811 35.5328437,20.1502311 C35.5328437,24.263127 36.2004701,27.3108125 37.5357228,29.2932875 C38.8709754,31.2757625 40.8979131,32.267 43.6165356,32.267 Z M44.3022059,28.805066 C43.315803,28.805066 42.4857811,28.5905445 41.8121401,28.1615014 C41.1384991,27.7324583 40.5971805,27.1332774 40.1881842,26.3639587 C39.7791878,25.5946401 39.4784553,24.6847728 39.2859864,23.6343569 C39.0935175,22.5839411 38.9972831,21.4373604 38.9972831,20.1946149 C38.9972831,17.0581619 39.5325871,14.7945896 40.6031951,13.4038982 C41.6738031,12.0132068 43.1834807,11.3178611 45.1322278,11.3178611 C46.1908065,11.3178611 47.0388724,11.4140259 47.6764255,11.6063556 C48.3139786,11.7986852 48.9094291,12.1463581 49.4627771,12.6493741 L49.4627771,12.6493741 L49.4627771,23.43463 C49.1259566,25.2099807 48.54855,26.5488911 47.7305574,27.4513611 C46.9125647,28.353831 45.7697809,28.805066 44.3022059,28.805066 Z M64.6850013,32.267 C66.1525763,32.267 67.5118876,32.0376839 68.7629351,31.5790516 C70.0139827,31.1204193 71.0605321,30.5064438 71.9025833,29.7371252 L71.9025833,29.7371252 L70.6395065,26.6302613 C70.1342757,27.2220449 69.4245468,27.7324583 68.5103198,28.1615014 C67.5960927,28.5905445 66.6337484,28.805066 65.6232869,28.805066 C63.1933677,28.805066 61.4731773,28.1097203 60.4627158,26.7190289 C59.4522543,25.3283375 58.9229649,23.2718895 58.8748477,20.549685 L58.8748477,20.549685 L72.407814,20.549685 C72.4799899,19.9579014 72.5281071,19.3513232 72.5521657,18.7299505 C72.5762243,18.1085777 72.5882536,17.5611779 72.5882536,17.087751 C72.5882536,15.1348652 72.3536822,13.5518441 71.8845394,12.3386878 C71.4153965,11.1255314 70.8079167,10.1712804 70.0620999,9.47593466 C69.3162831,8.78058895 68.4742318,8.30716208 67.5359462,8.05565406 C66.5976605,7.80414603 65.6593748,7.67839202 64.7210892,7.67839202 C61.7618805,7.67839202 59.4823276,8.73620518 57.8824302,10.8518315 C56.2825329,12.9674578 55.4825842,16.0225406 55.4825842,20.0170798 C55.4825842,21.8811981 55.6630237,23.5677813 56.0239028,25.0768294 C56.3847819,26.5858776 56.9381299,27.8730069 57.6839467,28.9382173 C58.4297635,30.0034278 59.3860931,30.8245275 60.5529356,31.4015165 C61.719778,31.9785055 63.0971332,32.267 64.6850013,32.267 Z M69.4125175,17.6203563 L59.0191994,17.6203563 C59.1876096,15.2532219 59.7650162,13.5814333 60.7514191,12.6049904 C61.7378219,11.6285475 63.0730746,11.140326 64.7571771,11.140326 C66.2488107,11.140326 67.4096385,11.6285475 68.2396604,12.6049904 C69.0696824,13.5814333 69.4606347,15.2532219 69.4125175,17.6203563 L69.4125175,17.6203563 Z M92.2132028,32.267 C92.814668,32.267 93.4943237,32.1930271 94.2521698,32.0450812 C95.0100159,31.8971353 95.6415543,31.690011 96.1467851,31.4237084 L96.1467851,31.4237084 L95.749818,28.4056121 C95.2686459,28.5831472 94.8235617,28.6941066 94.4145654,28.7384904 C94.0055691,28.7828741 93.6326606,28.805066 93.2958402,28.805066 C92.6703164,28.805066 92.1771149,28.5387634 91.8162358,28.0061582 C91.4553567,27.473553 91.2749172,26.5858776 91.2749172,25.343132 L91.2749172,25.343132 L91.2749172,0.79890784 C90.7696864,0.710140303 90.1802506,0.61397547 89.5066096,0.510413343 C88.8329686,0.406851215 88.1412836,0.318083677 87.4315547,0.244110729 C86.7218258,0.170137781 86.0301409,0.110959422 85.3564999,0.0665756534 C84.6828589,0.0221918845 84.1174817,0 83.6603681,0 C81.0139214,0 79.1193061,0.540002522 77.9765223,1.62000757 C76.8337385,2.70001261 76.2623465,4.45317148 76.2623465,6.87948418 L76.2623465,6.87948418 L76.2623465,8.34414856 L73.0144346,8.34414856 L73.0144346,11.8060825 L76.2623465,11.8060825 L76.2623465,31.6456272 L79.5824343,31.6456272 L79.5824343,11.8060825 L83.732544,11.8060825 L83.732544,8.34414856 L79.5824343,8.34414856 C79.5824343,7.54524072 79.6245368,6.84249771 79.708742,6.23591953 C79.7929471,5.62934136 79.9733866,5.11892801 80.2500606,4.7046795 C80.5267346,4.29043099 80.9357309,3.97974461 81.4770496,3.77262036 C82.0183682,3.5654961 82.7461411,3.46193398 83.6603681,3.46193398 C84.2858919,3.46193398 84.9956208,3.49892045 85.7895548,3.5728934 C86.5834889,3.64686635 87.3052471,3.75782577 87.9548294,3.90577166 L87.9548294,3.90577166 L87.9548294,26.9853315 C87.9548294,28.879039 88.3397672,30.2327439 89.1096426,31.0464464 C89.879518,31.8601488 90.9140381,32.267 92.2132028,32.267 Z M103.537933,32.267 C105.197977,32.267 106.581347,31.8527515 107.688042,31.0242545 C108.794738,30.1957575 109.660848,29.1157524 110.286372,27.7842393 L110.286372,27.7842393 L110.647251,27.7842393 L111.513361,31.6456272 L113.750811,31.6456272 C113.60646,30.6987735 113.498196,29.6409603 113.42602,28.4721878 C113.353844,27.3034152 113.317756,26.1568345 113.317756,25.0324457 L113.317756,25.0324457 L113.317756,8.34414856 L109.997669,8.34414856 L109.997669,23.5677813 C109.516497,25.0472403 108.818797,26.2899858 107.90457,27.2960179 C106.990343,28.30205 105.811471,28.805066 104.367955,28.805066 C103.525903,28.805066 102.834219,28.6349282 102.2929,28.2946527 C101.751581,27.9543771 101.324541,27.4661557 101.011779,26.8299883 C100.699017,26.193821 100.48249,25.4023104 100.362197,24.4554567 C100.241904,23.5086029 100.181757,22.4138033 100.181757,21.1710578 L100.181757,21.1710578 L100.181757,8.34414856 L96.8616694,8.34414856 L96.8616694,22.1031169 C96.8616694,24.0560028 97.0000064,25.6834076 97.2766803,26.9853315 C97.5533543,28.2872554 97.9743799,29.330274 98.5397572,30.1143872 C99.1051345,30.8985005 99.802834,31.4532976 100.632856,31.7787785 C101.462878,32.1042595 102.431237,32.267 103.537933,32.267 Z M125.544684,32.267 C127.012259,32.267 128.37157,32.0376839 129.622618,31.5790516 C130.873665,31.1204193 131.920215,30.5064438 132.762266,29.7371252 L132.762266,29.7371252 L131.499189,26.6302613 C130.993959,27.2220449 130.28423,27.7324583 129.370003,28.1615014 C128.455775,28.5905445 127.493431,28.805066 126.48297,28.805066 C124.05305,28.805066 122.33286,28.1097203 121.322399,26.7190289 C120.311937,25.3283375 119.782648,23.2718895 119.734531,20.549685 L119.734531,20.549685 L133.267497,20.549685 C133.339673,19.9579014 133.38779,19.3513232 133.411848,18.7299505 C133.435907,18.1085777 133.447936,17.5611779 133.447936,17.087751 C133.447936,15.1348652 133.213365,13.5518441 132.744222,12.3386878 C132.275079,11.1255314 131.667599,10.1712804 130.921783,9.47593466 C130.175966,8.78058895 129.333915,8.30716208 128.395629,8.05565406 C127.457343,7.80414603 126.519058,7.67839202 125.580772,7.67839202 C122.621563,7.67839202 120.34201,8.73620518 118.742113,10.8518315 C117.142216,12.9674578 116.342267,16.0225406 116.342267,20.0170798 C116.342267,21.8811981 116.522707,23.5677813 116.883586,25.0768294 C117.244465,26.5858776 117.797813,27.8730069 118.543629,28.9382173 C119.289446,30.0034278 120.245776,30.8245275 121.412618,31.4015165 C122.579461,31.9785055 123.956816,32.267 125.544684,32.267 Z M130.2722,17.6203563 L119.878882,17.6203563 C120.047292,15.2532219 120.624699,13.5814333 121.611102,12.6049904 C122.597505,11.6285475 123.932757,11.140326 125.61686,11.140326 C127.108494,11.140326 128.269321,11.6285475 129.099343,12.6049904 C129.929365,13.5814333 130.320318,15.2532219 130.2722,17.6203563 L130.2722,17.6203563 Z M139.503831,31.6456272 L139.503831,16.2888432 C139.888769,14.8389734 140.568425,13.6480089 141.542798,12.7159498 C142.517172,11.7838906 143.738146,11.3178611 145.205721,11.3178611 C146.865765,11.3178611 148.020578,11.9392338 148.670161,13.1819794 C149.319743,14.4247249 149.644534,16.2888432 149.644534,18.7743343 L149.644534,18.7743343 L149.644534,31.6456272 L152.964622,31.6456272 L152.964622,17.9310426 C152.964622,15.9189785 152.82027,14.2545871 152.531567,12.9378686 C152.242864,11.6211502 151.815823,10.5707343 151.250446,9.78662105 C150.685069,9.00250779 149.981355,8.45510798 149.139303,8.1444216 C148.297252,7.83373521 147.322879,7.67839202 146.216183,7.67839202 C144.652373,7.67839202 143.311106,8.04085947 142.192381,8.76579436 C141.073656,9.49072925 140.165443,10.3858019 139.467744,11.4510124 L139.467744,11.4510124 L139.142952,11.4510124 L138.49337,8.34414856 L136.183744,8.34414856 L136.183744,31.6456272 L139.503831,31.6456272 Z M162.124077,32.267 C163.134539,32.267 164.078839,32.1264514 164.956978,31.8453542 C165.835117,31.564257 166.659125,31.2165841 167.429,30.8023356 L167.429,30.8023356 L166.671154,27.9173906 C166.04563,28.1836933 165.486268,28.3982148 164.993066,28.5609553 C164.499865,28.7236958 163.952531,28.805066 163.351066,28.805066 C162.41278,28.805066 161.751169,28.4204067 161.366231,27.651088 C160.981293,26.8817694 160.788825,25.5650509 160.788825,23.7009326 L160.788825,23.7009326 L160.788825,11.8060825 L166.490714,11.8060825 L166.490714,8.34414856 L160.788825,8.34414856 L160.788825,2.5742586 L157.468737,3.63946905 L157.468737,8.34414856 L154.256913,8.34414856 L154.256913,11.8060825 L157.468737,11.8060825 L157.468737,25.0768294 C157.468737,27.6214989 157.823601,29.456028 158.53333,30.5804168 C159.243059,31.7048056 160.439975,32.267 162.124077,32.267 Z" id="path-1"></path>
    </defs>
    <g id="Page-1" stroke="none" stroke-width="1" fill="none" fill-rule="evenodd">
        <g id="Artboard" transform="translate(-159.000000, -95.000000)">
            <g id="cf" transform="translate(160.260000, 96.027000)">
                <mask id="mask-2" fill="white">
                    <use xlink:href="#path-1"></use>
                </mask>
                <use id="codefluent" stroke="#FFFFFF" stroke-width="0.8" fill="#FFFFFF" fill-rule="nonzero" xlink:href="#path-1"></use>
            </g>
        </g>
    </g>
</svg>